<?xml version="1.0" encoding="utf-8"?>
<!-- Generator: Adobe Illustrator 15.0.1, SVG Export Plug-In . SVG Version: 6.00 Build 0)  -->
<!DOCTYPE svg PUBLIC "-//W3C//DTD SVG 1.1//EN" "http://www.w3.org/Graphics/SVG/1.1/DTD/svg11.dtd">
<svg version="1.1" id="Layer_1" xmlns="http://www.w3.org/2000/svg" xmlns:xlink="http://www.w3.org/1999/xlink" x="0px" y="0px"
	 width="56.586px" height="50px" viewBox="0 0 56.586 50" enable-background="new 0 0 56.586 50" xml:space="preserve">
<g id="XMLID_91_">
	<path id="XMLID_92_" fill="#6487FA" d="M45.065,31.566h-2.305v-2.305c0-1.271-1.029-2.305-2.304-2.305s-2.304,1.031-2.304,2.305
		v2.305h-2.305c-1.272,0-2.305,1.031-2.305,2.304s1.031,2.306,2.305,2.306h2.305v2.305c0,1.271,1.029,2.304,2.304,2.304
		s2.304-1.031,2.304-2.304v-2.305h2.305c1.272,0,2.305-1.031,2.305-2.306C47.37,32.6,46.339,31.566,45.065,31.566z"/>
	<path id="XMLID_93_" fill="#6487FA" d="M40.458,17.742c-5.298,0-10.007,2.567-12.948,6.523c-1.176-0.247-2.394-0.378-3.642-0.378
		c-1.328,0-2.621,0.148-3.866,0.427C14.146,25.627,9.38,29.855,7.313,35.389c-0.716,1.92-1.11,3.998-1.11,6.164
		c0,1.272,1.032,2.303,2.304,2.303H27.8C30.756,47.596,35.332,50,40.458,50c8.895,0,16.129-7.234,16.129-16.13
		C56.587,24.978,49.353,17.742,40.458,17.742z M40.458,45.393c-2.088,0-4.045-0.562-5.736-1.537
		c-3.454-1.992-5.784-5.719-5.784-9.984c0-3.072,1.213-5.866,3.182-7.936c2.1-2.206,5.062-3.584,8.34-3.584
		c6.353,0,11.521,5.167,11.521,11.52S46.812,45.393,40.458,45.393z"/>
	<path id="XMLID_104_" fill="#6487FA" d="M5.012,9.639c0,3.636,2.822,6.623,6.39,6.891c-1.134-2.043-1.781-4.393-1.781-6.891
		s0.646-4.847,1.781-6.89C7.834,3.017,5.012,6.004,5.012,9.639z"/>
	<path id="XMLID_105_" fill="#6487FA" d="M14.362,21.412c-0.794-0.166-1.61-0.252-2.438-0.252C5.349,21.16,0,26.509,0,33.084
		c0,1.271,1.032,2.305,2.305,2.305h0.157C4.245,29.209,8.636,24.125,14.362,21.412z"/>
	<path id="XMLID_106_" fill="#6487FA" d="M16.01,4.067c-1.12,1.575-1.781,3.497-1.781,5.572c0,2.075,0.662,3.997,1.781,5.572
		c1.748,2.459,4.618,4.067,7.858,4.067c5.315,0,9.639-4.324,9.639-9.639C33.507,4.323,29.184,0,23.868,0
		C20.628,0,17.758,1.608,16.01,4.067z"/>
</g>
</svg>
