<?xml version="1.0" encoding="utf-8"?>
<!-- Generator: Adobe Illustrator 15.0.1, SVG Export Plug-In . SVG Version: 6.00 Build 0)  -->
<!DOCTYPE svg PUBLIC "-//W3C//DTD SVG 1.1//EN" "http://www.w3.org/Graphics/SVG/1.1/DTD/svg11.dtd">
<svg version="1.1" id="Layer_1" xmlns="http://www.w3.org/2000/svg" xmlns:xlink="http://www.w3.org/1999/xlink" x="0px" y="0px"
	 width="50px" height="50px" viewBox="0 0 50 50" enable-background="new 0 0 50 50" xml:space="preserve">
<g>
	<path fill="#6487F8" d="M25,0C11.215,0,0,11.215,0,25s11.215,25,25,25s25-11.215,25-25S38.785,0,25,0z M25,45.455
		C13.721,45.455,4.545,36.279,4.545,25S13.721,4.545,25,4.545c11.279,0,20.455,9.175,20.455,20.455S36.279,45.455,25,45.455z"/>
	<path fill="#6487F8" d="M34.375,16.161L21.518,29.018l-5.892-5.893c-0.888-0.887-2.327-0.887-3.214,0
		c-0.888,0.888-0.888,2.326,0,3.214l7.499,7.5c0.427,0.427,1.005,0.665,1.607,0.665l0,0c0.604,0,1.182-0.238,1.607-0.665
		l14.464-14.464c0.888-0.887,0.888-2.326,0-3.213C36.701,15.273,35.262,15.273,34.375,16.161z"/>
</g>
</svg>
