<?xml version="1.0" encoding="utf-8"?>
<!-- Generator: Adobe Illustrator 15.0.1, SVG Export Plug-In . SVG Version: 6.00 Build 0)  -->
<!DOCTYPE svg PUBLIC "-//W3C//DTD SVG 1.1//EN" "http://www.w3.org/Graphics/SVG/1.1/DTD/svg11.dtd">
<svg version="1.1" id="Layer_1" xmlns="http://www.w3.org/2000/svg" xmlns:xlink="http://www.w3.org/1999/xlink" x="0px" y="0px"
	 width="50px" height="50px" viewBox="0 0 50 50" enable-background="new 0 0 50 50" xml:space="preserve">
<path fill="#6487FA" d="M47.618,2.38c-3.177-3.174-8.343-3.174-11.52,0L3.463,35.016c-0.016,0.016-0.024,0.035-0.038,0.051
	c-0.019,0.022-0.035,0.046-0.052,0.069c-0.048,0.067-0.085,0.139-0.113,0.216c-0.008,0.023-0.02,0.045-0.026,0.068
	c-0.002,0.01-0.008,0.018-0.011,0.027L0.023,48.886c-0.014,0.062-0.018,0.122-0.02,0.183C0.003,49.08,0,49.092,0,49.104
	c0.001,0.104,0.023,0.203,0.059,0.301c0.008,0.021,0.017,0.042,0.027,0.063c0.044,0.097,0.1,0.19,0.177,0.269
	c0.086,0.086,0.188,0.151,0.297,0.197c0.109,0.045,0.227,0.067,0.343,0.067c0.069,0,0.14-0.009,0.209-0.025l13.439-3.198
	c0.024-0.006,0.046-0.02,0.069-0.027c0.031-0.01,0.06-0.021,0.09-0.035c0.065-0.029,0.126-0.066,0.182-0.111
	c0.022-0.018,0.044-0.029,0.065-0.049c0.007-0.008,0.016-0.011,0.023-0.018L47.617,13.9C50.793,10.724,50.793,5.557,47.618,2.38z
	 M46.338,3.661c2.252,2.252,2.443,5.789,0.589,8.269L38.07,3.072C40.551,1.217,44.087,1.409,46.338,3.661z M41.859,17.1l-8.96-8.959
	l1.28-1.279l8.959,8.959L41.859,17.1z M4.49,45.51c-0.354-0.354-0.926-0.354-1.28,0l-0.685,0.686l2.312-9.709l4.001-0.445
	l-0.515,4.636c-0.004,0.034,0.009,0.066,0.009,0.1c0,0.034-0.013,0.065-0.009,0.1c0.003,0.03,0.019,0.054,0.025,0.083
	c0.011,0.053,0.026,0.101,0.045,0.149c0.023,0.06,0.052,0.112,0.086,0.164c0.028,0.042,0.056,0.079,0.091,0.114
	c0.043,0.047,0.09,0.086,0.142,0.122c0.041,0.028,0.08,0.054,0.125,0.075c0.06,0.029,0.123,0.045,0.188,0.061
	c0.035,0.008,0.063,0.027,0.098,0.03c0.033,0.005,0.065,0.007,0.099,0.007h0.001h0.001h0.001h0.001c0.032,0,0.066-0.002,0.099-0.007
	l4.635-0.514l-0.444,4.002l-9.709,2.312l0.685-0.686C4.842,46.436,4.842,45.863,4.49,45.51z M15.847,40.551l20.251-20.252
	c0.354-0.354,0.354-0.926,0-1.28s-0.926-0.354-1.28,0L14.567,39.271l-4.319,0.479l0.479-4.319L30.98,15.18
	c0.354-0.354,0.354-0.926,0-1.28c-0.354-0.354-0.926-0.354-1.279,0L9.448,34.152l-2.88,0.32L31.62,9.42l8.959,8.959L15.527,43.432
	L15.847,40.551z M44.418,14.541l-8.959-8.959l1.28-1.281l8.96,8.959L44.418,14.541z"/>
</svg>
