<?xml version="1.0" encoding="utf-8"?>
<!-- Generator: Adobe Illustrator 15.0.1, SVG Export Plug-In . SVG Version: 6.00 Build 0)  -->
<!DOCTYPE svg PUBLIC "-//W3C//DTD SVG 1.1//EN" "http://www.w3.org/Graphics/SVG/1.1/DTD/svg11.dtd">
<svg version="1.1" id="Layer_1" xmlns="http://www.w3.org/2000/svg" xmlns:xlink="http://www.w3.org/1999/xlink" x="0px" y="0px"
	 width="55.153px" height="50px" viewBox="-0.653 4.5 55.153 50" enable-background="new -0.653 4.5 55.153 50"
	 xml:space="preserve">
<g>
</g>
<g>
	<g>
		<path fill="#6487FA" d="M22.581,45.472c-0.191,0-0.381-0.049-0.553-0.148c-0.342-0.197-0.553-0.562-0.553-0.956V36.06H0.452
			c-0.609,0-1.104-0.494-1.104-1.104V24.044c0-0.61,0.495-1.104,1.104-1.104h21.023v-8.307c0-0.395,0.211-0.759,0.553-0.957
			c0.342-0.197,0.764-0.197,1.105,0l25.75,14.868c0.342,0.197,0.553,0.562,0.553,0.956s-0.211,0.759-0.553,0.956l-25.75,14.868
			C22.961,45.423,22.771,45.472,22.581,45.472z M1.557,33.851h21.023c0.609,0,1.104,0.494,1.104,1.104v7.499L46.121,29.5
			L23.685,16.546v7.499c0,0.61-0.495,1.104-1.104,1.104H1.557V33.851z"/>
	</g>
</g>
<path fill="#6487FA" d="M49.232,4.5H9.768C6.858,4.5,4.5,6.868,4.5,9.768v9.402h2.501V9.768c0-1.521,1.246-2.767,2.767-2.767h39.464
	C50.753,7.001,52,8.247,52,9.768l-0.001,39.464c0,1.521-1.245,2.767-2.767,2.767H9.768c-1.521,0-2.767-1.245-2.767-2.767V39.83H4.5
	v9.402c0,2.91,2.368,5.268,5.268,5.268h39.464c2.91,0,5.268-2.368,5.268-5.268V9.768C54.5,6.868,52.132,4.5,49.232,4.5z"/>
</svg>
