<?xml version="1.0" encoding="utf-8"?>
<!-- Generator: Adobe Illustrator 15.0.1, SVG Export Plug-In . SVG Version: 6.00 Build 0)  -->
<!DOCTYPE svg PUBLIC "-//W3C//DTD SVG 1.1//EN" "http://www.w3.org/Graphics/SVG/1.1/DTD/svg11.dtd">
<svg version="1.1" id="Layer_1" xmlns="http://www.w3.org/2000/svg" xmlns:xlink="http://www.w3.org/1999/xlink" x="0px" y="0px"
	 width="55.152px" height="50px" viewBox="0 0 55.152 50" enable-background="new 0 0 55.152 50" xml:space="preserve">
<g>
	<g>
		<path fill="#6487FA" d="M23.234,40.973c-0.191,0-0.381-0.05-0.554-0.148c-0.342-0.197-0.553-0.563-0.553-0.956v-8.308H1.105
			C0.495,31.561,0,31.066,0,30.456V19.544c0-0.61,0.495-1.104,1.104-1.104h21.022v-8.307c0-0.395,0.211-0.759,0.553-0.957
			c0.343-0.197,0.765-0.197,1.105,0l25.75,14.868c0.342,0.197,0.553,0.562,0.553,0.956s-0.211,0.759-0.553,0.956l-25.75,14.868
			C23.614,40.923,23.423,40.973,23.234,40.973z M2.209,29.352h21.023c0.608,0,1.104,0.494,1.104,1.104v7.499L46.774,25
			L24.337,12.046v7.499c0,0.61-0.495,1.104-1.104,1.104H2.209V29.352z"/>
	</g>
</g>
<path fill="#6487FA" d="M49.884,0H10.42C7.51,0,5.153,2.368,5.153,5.268v9.402h2.501V5.268c0-1.521,1.246-2.767,2.767-2.767h39.464
	c1.521,0,2.769,1.246,2.769,2.767l-0.001,39.464c0,1.521-1.245,2.767-2.768,2.767H10.42c-1.521,0-2.767-1.245-2.767-2.767V35.33
	H5.153v9.402c0,2.91,2.368,5.268,5.268,5.268h39.464c2.91,0,5.269-2.368,5.269-5.268V5.268C55.153,2.368,52.784,0,49.884,0z"/>
</svg>
