<?xml version="1.0" encoding="utf-8"?>
<!-- Generator: Adobe Illustrator 15.0.1, SVG Export Plug-In . SVG Version: 6.00 Build 0)  -->
<!DOCTYPE svg PUBLIC "-//W3C//DTD SVG 1.1//EN" "http://www.w3.org/Graphics/SVG/1.1/DTD/svg11.dtd">
<svg version="1.1" id="Layer_1" xmlns="http://www.w3.org/2000/svg" xmlns:xlink="http://www.w3.org/1999/xlink" x="0px" y="0px"
	 width="50px" height="50px" viewBox="0 0 50 50" enable-background="new 0 0 50 50" xml:space="preserve">
<g>
	<g>
		<path fill="#002D8C" stroke="#002D8C" stroke-miterlimit="10" d="M49.936,23.234c-0.041-0.529-0.507-0.926-1.03-0.885
			c-0.529,0.035-0.926,0.498-0.893,1.027c0.65,8.75-3.861,17.242-11.481,21.631C25.513,51.35,11.372,47.57,5.008,36.582
			c-6.36-10.986-2.571-25.084,8.447-31.428c7.441-4.282,16.788-4.033,24.004,0.575l-6.93,3.987c-0.312,0.18-0.499,0.522-0.474,0.885
			c0.007,0.151,0.052,0.296,0.122,0.426c0.102,0.174,0.257,0.317,0.45,0.398l16.491,7.113c0.295,0.125,0.637,0.099,0.908-0.076
			c0.267-0.175,0.429-0.472,0.438-0.793l0.162-16.7c0.003-0.343-0.18-0.665-0.479-0.838c-0.296-0.174-0.661-0.174-0.966-0.002
			l-7.907,4.554c-0.062-0.076-0.126-0.155-0.215-0.214C31.18-0.875,20.749-1.258,12.495,3.494
			C0.557,10.368-3.547,25.641,3.344,37.543c6.892,11.904,22.212,15.992,34.151,9.125C45.749,41.91,50.632,32.715,49.936,23.234z
			 M46.688,2.631l-0.137,13.576L33.15,10.424L46.688,2.631z"/>
	</g>
</g>
</svg>
