<?xml version="1.0" encoding="utf-8"?>
<!-- Generator: Adobe Illustrator 15.0.1, SVG Export Plug-In . SVG Version: 6.00 Build 0)  -->
<!DOCTYPE svg PUBLIC "-//W3C//DTD SVG 1.1//EN" "http://www.w3.org/Graphics/SVG/1.1/DTD/svg11.dtd">
<svg version="1.1" id="Layer_1" xmlns="http://www.w3.org/2000/svg" xmlns:xlink="http://www.w3.org/1999/xlink" x="0px" y="0px"
	 width="50px" height="50px" viewBox="0 0 50 50" enable-background="new 0 0 50 50" xml:space="preserve">
<g>
	<g>
		<path fill="#6487FA" stroke="#6487FA" stroke-miterlimit="10" d="M49.936,23.234c-0.041-0.529-0.506-0.926-1.029-0.885
			c-0.529,0.035-0.926,0.498-0.893,1.027c0.649,8.75-3.861,17.242-11.481,21.631c-11.019,6.343-25.16,2.563-31.524-8.425
			c-6.36-10.986-2.571-25.084,8.447-31.428c7.441-4.282,16.788-4.033,24.004,0.575l-6.93,3.987c-0.313,0.18-0.5,0.522-0.475,0.885
			c0.008,0.151,0.053,0.296,0.123,0.426c0.102,0.174,0.256,0.317,0.449,0.398l16.491,7.113c0.295,0.125,0.637,0.099,0.907-0.076
			c0.268-0.175,0.43-0.472,0.438-0.793l0.162-16.7c0.003-0.343-0.181-0.665-0.479-0.838c-0.295-0.174-0.66-0.174-0.965-0.002
			l-7.908,4.554c-0.062-0.076-0.125-0.155-0.215-0.214c-7.879-5.344-18.31-5.727-26.563-0.975
			C0.557,10.368-3.547,25.641,3.344,37.543c6.892,11.904,22.212,15.992,34.151,9.125C45.749,41.91,50.632,32.715,49.936,23.234z
			 M46.688,2.631l-0.137,13.576l-13.4-5.783L46.688,2.631z"/>
	</g>
</g>
</svg>
