<?xml version="1.0" encoding="utf-8"?>
<!-- Generator: Adobe Illustrator 15.0.1, SVG Export Plug-In . SVG Version: 6.00 Build 0)  -->
<!DOCTYPE svg PUBLIC "-//W3C//DTD SVG 1.1//EN" "http://www.w3.org/Graphics/SVG/1.1/DTD/svg11.dtd">
<svg version="1.1" id="Layer_1" xmlns="http://www.w3.org/2000/svg" xmlns:xlink="http://www.w3.org/1999/xlink" x="0px" y="0px"
	 width="56.586px" height="50px" viewBox="-3.293 0 56.586 50" enable-background="new -3.293 0 56.586 50" xml:space="preserve">
<g id="XMLID_91_">
	<path id="XMLID_92_" d="M41.772,31.567h-2.305v-2.305c0-1.272-1.03-2.305-2.304-2.305s-2.304,1.032-2.304,2.305v2.305h-2.305
		c-1.272,0-2.304,1.031-2.304,2.303c0,1.273,1.031,2.306,2.304,2.306h2.305v2.304c0,1.272,1.03,2.304,2.304,2.304
		s2.304-1.031,2.304-2.304v-2.304h2.305c1.272,0,2.304-1.032,2.304-2.306C44.076,32.599,43.045,31.567,41.772,31.567z"/>
	<path id="XMLID_93_" d="M37.164,17.742c-5.298,0-10.007,2.567-12.948,6.523c-1.176-0.247-2.394-0.378-3.642-0.378
		c-1.328,0-2.621,0.148-3.866,0.427c-5.856,1.313-10.622,5.541-12.689,11.074c-0.716,1.92-1.11,3.998-1.11,6.164
		c0,1.273,1.032,2.304,2.304,2.304h19.293C27.462,47.596,32.038,50,37.164,50c8.895,0,16.129-7.235,16.129-16.13
		C53.293,24.978,46.059,17.742,37.164,17.742z M37.164,45.393c-2.088,0-4.045-0.562-5.736-1.537
		c-3.454-1.992-5.784-5.719-5.784-9.985c0-3.072,1.212-5.866,3.181-7.936c2.1-2.205,5.061-3.584,8.34-3.584
		c6.353,0,11.521,5.167,11.521,11.52S43.517,45.393,37.164,45.393z"/>
	<path id="XMLID_104_" d="M1.718,9.639c0,3.636,2.822,6.623,6.39,6.891c-1.134-2.043-1.781-4.393-1.781-6.891
		c0-2.498,0.646-4.847,1.781-6.89C4.54,3.017,1.718,6.004,1.718,9.639z"/>
	<path id="XMLID_105_" d="M11.068,21.412c-0.794-0.166-1.61-0.252-2.438-0.252c-6.575,0-11.924,5.349-11.924,11.924
		c0,1.272,1.032,2.304,2.305,2.304h0.157C0.951,29.209,5.342,24.125,11.068,21.412z"/>
	<path id="XMLID_106_" d="M12.716,4.067c-1.12,1.575-1.781,3.497-1.781,5.572c0,2.075,0.662,3.997,1.781,5.572
		c1.748,2.459,4.618,4.067,7.858,4.067c5.315,0,9.639-4.324,9.639-9.639C30.213,4.323,25.889,0,20.574,0
		C17.334,0,14.464,1.608,12.716,4.067z"/>
</g>
</svg>
