<?xml version="1.0" encoding="utf-8"?>
<!-- Generator: Adobe Illustrator 15.0.1, SVG Export Plug-In . SVG Version: 6.00 Build 0)  -->
<!DOCTYPE svg PUBLIC "-//W3C//DTD SVG 1.1//EN" "http://www.w3.org/Graphics/SVG/1.1/DTD/svg11.dtd">
<svg version="1.1" id="Layer_1" xmlns="http://www.w3.org/2000/svg" xmlns:xlink="http://www.w3.org/1999/xlink" x="0px" y="0px"
	 width="40.001px" height="50px" viewBox="0 0 40.001 50" enable-background="new 0 0 40.001 50" xml:space="preserve">
<g>
	<g>
		<path d="M34.35,5.99h-7.7C26.267,2.624,23.432,0,20,0s-6.265,2.624-6.649,5.99h-7.7C2.535,5.99,0,8.553,0,11.703v0.293
			c0,2.407,1.482,4.467,3.571,5.306v26.985c0,3.15,2.535,5.713,5.651,5.713h21.556c3.117,0,5.65-2.563,5.65-5.713V17.302
			c2.088-0.839,3.572-2.899,3.572-5.306v-0.293C40.001,8.553,37.466,5.99,34.35,5.99z M20,2.709c1.952,0,3.582,1.415,3.942,3.281
			h-7.883C16.419,4.123,18.049,2.709,20,2.709z M33.748,44.287c0,1.656-1.331,3.004-2.97,3.004H9.222
			c-1.638,0-2.971-1.348-2.971-3.004V17.708h27.497V44.287z M37.321,11.996c0,1.656-1.334,3.003-2.972,3.003H5.651
			c-1.638,0-2.971-1.348-2.971-3.003v-0.293c0-1.656,1.333-3.003,2.971-3.003H34.35c1.638,0,2.972,1.348,2.972,3.003V11.996
			L37.321,11.996z"/>
		<path d="M12.815,43.826c0.74,0,1.34-0.606,1.34-1.354V27.221c0-0.748-0.6-1.354-1.34-1.354c-0.74,0-1.34,0.606-1.34,1.354v15.252
			C11.476,43.221,12.076,43.826,12.815,43.826z"/>
		<path d="M20,43.826c0.74,0,1.34-0.606,1.34-1.354V27.221c0-0.748-0.6-1.354-1.34-1.354s-1.34,0.606-1.34,1.354v15.252
			C18.66,43.221,19.26,43.826,20,43.826z"/>
		<path d="M27.185,43.826c0.74,0,1.341-0.606,1.341-1.354V27.221c0-0.748-0.601-1.354-1.341-1.354s-1.339,0.606-1.339,1.354v15.252
			C25.846,43.221,26.444,43.826,27.185,43.826z"/>
	</g>
</g>
</svg>
