<?xml version="1.0" encoding="utf-8"?>
<!-- Generator: Adobe Illustrator 15.0.1, SVG Export Plug-In . SVG Version: 6.00 Build 0)  -->
<!DOCTYPE svg PUBLIC "-//W3C//DTD SVG 1.1//EN" "http://www.w3.org/Graphics/SVG/1.1/DTD/svg11.dtd">
<svg version="1.1" id="Layer_1" xmlns="http://www.w3.org/2000/svg" xmlns:xlink="http://www.w3.org/1999/xlink" x="0px" y="0px"
	 width="58.808px" height="50px" viewBox="0 0 58.808 50" enable-background="new 0 0 58.808 50" xml:space="preserve">
<g id="XMLID_1_">
	<path id="XMLID_3_" d="M52.274,0H12.5C8.893,0,5.966,2.926,5.966,6.534c0,1.094,0.895,1.989,1.989,1.989s1.989-0.895,1.989-1.989
		c0-1.406,1.15-2.557,2.557-2.557h39.774c1.405,0,2.557,1.15,2.557,2.557v36.932c0,1.407-1.151,2.558-2.557,2.558H12.5
		c-1.406,0-2.557-1.15-2.557-2.558c0-1.094-0.895-1.988-1.989-1.988s-1.989,0.895-1.989,1.988C5.966,47.074,8.893,50,12.5,50h39.774
		c3.606,0,6.533-2.926,6.533-6.534V6.534C58.808,2.926,55.881,0,52.274,0z"/>
	<path id="XMLID_4_" d="M24.858,36.108c-0.767,0.767-0.767,2.031,0,2.813l0.015,0.014c0.384,0.356,0.88,0.555,1.392,0.555
		c0.54,0,1.037-0.198,1.406-0.582l11.732-11.705c0.61-0.61,0.923-1.321,0.923-2.088c0-0.753-0.326-1.463-0.923-2.06L27.388,11.065
		c-0.37-0.369-0.867-0.583-1.407-0.583c-0.525,0-1.037,0.199-1.406,0.583c-0.781,0.781-0.781,2.031,0,2.813l9.262,9.12H1.989
		C0.895,22.998,0,23.892,0,24.986c0,1.094,0.895,1.988,1.989,1.988h31.903L24.858,36.108z"/>
</g>
</svg>
